<svg version="1.2" xmlns="http://www.w3.org/2000/svg" viewBox="0 0 48 48" width="400" height="400">
	<style>
		.s0 { fill: none;stroke: #000000;stroke-width: 2 } 
		.s1 { opacity: .1;fill: #000000 } 
		.s2 { fill: none;stroke: #000000;stroke-width: 1.5 } 
		.s3 { opacity: .15;fill: #000000 } 
		.s4 { fill: none;stroke: #000000;stroke-linejoin: round;stroke-width: 2 } 
		.s5 { fill: #000000 } 
	</style>
	<path fill-rule="evenodd" class="s0" d="m8 14h32c1.1 0 2 0.9 2 2v24c0 1.1-0.9 2-2 2h-32c-1.1 0-2-0.9-2-2v-24c0-1.1 0.9-2 2-2z"/>
	<path fill-rule="evenodd" class="s1" d="m17 24h14c0.55 0 1 0.45 1 1v10c0 0.55-0.45 1-1 1h-14c-0.55 0-1-0.45-1-1v-10c0-0.55 0.45-1 1-1z"/>
	<path fill-rule="evenodd" class="s2" d="m17 26h14c0.55 0 1 0.45 1 1v10c0 0.55-0.45 1-1 1h-14c-0.55 0-1-0.45-1-1v-10c0-0.55 0.45-1 1-1z"/>
	<path fill-rule="evenodd" class="s2" d="m13 28h3"/>
	<path fill-rule="evenodd" class="s2" d="m13 32h3"/>
	<path fill-rule="evenodd" class="s2" d="m13 36h3"/>
	<path fill-rule="evenodd" class="s2" d="m32 28h3"/>
	<path fill-rule="evenodd" class="s2" d="m32 32h3"/>
	<path fill-rule="evenodd" class="s2" d="m32 36h3"/>
	<path class="s3" d="m24 6l-18 8 18 6 18-6z"/>
	<path class="s4" d="m24 5l-18 8m18-8l18 8m-18-8v14m-18-6l18 6m18-6l-18 6"/>
	<path fill-rule="evenodd" class="s5" d="m20 30.5c-0.83 0-1.5-0.67-1.5-1.5 0-0.83 0.67-1.5 1.5-1.5 0.83 0 1.5 0.67 1.5 1.5 0 0.83-0.67 1.5-1.5 1.5z"/>
</svg>